# xmcd
#
# Track frame offsets: 
#        150
#        28857
#        53477
#        76327
#        105945
#        123457
#        146822
#        171355
#        195360
#
# Disc length: 2808 seconds
#
# Revision: 0
# Processed by: cddbd v1.5.2PL0 Copyright (c) Steve Scherf et al.
# Submitted via: ExactAudioCopy v0.95b3
#
DISCID=700af609
DTITLE=Sulata - Kia Koe
DYEAR=1996
DGENRE=Soul
TTITLE0=Mancini
TTITLE1=Back To Hong Kong
TTITLE2=Not Today
TTITLE3=At Play
TTITLE4=Never
TTITLE5=Thinking
TTITLE6=Find Yourself
TTITLE7=Where To Now
TTITLE8=Kia Koe
EXTD=
EXTT0=
EXTT1=
EXTT2=
EXTT3=
EXTT4=
EXTT5=
EXTT6=
EXTT7=
EXTT8=
PLAYORDER=
